# xmcd
#
# Track frame offsets:
#	150
#	15120
#	28017
#	39752
#	51277
#	61407
#	72170
#	87522
#	98405
#	111100
#	124047
#	139045
#	150652
#	165352
#
# Disc length: 2418 seconds
#
# Revision: 0
# Processed by: cddbd v1.4PL0 Copyright (c) Steve Scherf et al.
# Submitted via: dBpowerAMP V4.0
#
DISCID=a209700e
DTITLE=Conway Twitty  - Love Songs
DYEAR=1900
DGENRE=Country
TTITLE0=I'd Love To Lay You Down
TTITLE1=Love Is The Foundation
TTITLE2=Before Your Time
TTITLE3=Even The Bad Times Are Good
TTITLE4=Kiss An Angel Good Morning
TTITLE5=Walk Through This World With Me
TTITLE6=All I Have To Offer You Is Me
TTITLE7=I Can't Believe She Gives It All To Me
TTITLE8=It's True Love
TTITLE9=Happy Birthday Darlin'
TTITLE10=For My Woman's Love
TTITLE11=Lovin' What Your Lovin' Does To Me
TTITLE12=I Still Belive In Waltzes
TTITLE13=I Will Always Find My Way To You 
EXTD=
EXTT0=
EXTT1=
EXTT2=
EXTT3=
EXTT4=
EXTT5=
EXTT6=
EXTT7=
EXTT8=
EXTT9=
EXTT10=
EXTT11=
EXTT12=
EXTT13=
PLAYORDER=
